<svg width="353" height="353" viewBox="0 0 353 353" fill="none" xmlns="http://www.w3.org/2000/svg">
<path fill-rule="evenodd" clip-rule="evenodd" d="M148.515 122.5C148.505 122.51 148.495 122.53 148.485 122.54C148.485 122.52 148.485 122.49 148.495 122.46C148.505 122.47 148.505 122.49 148.515 122.5Z" fill="#FFC1D8"/>
<path fill-rule="evenodd" clip-rule="evenodd" d="M345.455 279.652C345.505 280.497 345.505 281.33 345.455 282.163V279.652ZM325.692 167.93C325.692 159.413 322.212 151.682 316.606 146.087C311.001 140.481 303.27 137 294.755 137C282.711 137 272.221 143.973 267.125 154.093C265.633 151.121 263.669 148.412 261.333 146.087C255.727 140.481 247.983 137 239.481 137C222.478 137 208.557 150.91 208.557 167.93L167.453 218.75C167.453 218.75 165.29 207.212 162.443 192.121L104 215.754L106.685 230.372C107.605 235.344 107.555 257.771 107.555 267.369C107.555 280.309 127.691 316 135.894 316H330.54C338.743 316 353 276.89 353 267.369C353 248.262 325.692 167.93 325.692 167.93Z" fill="#D7408F"/>
<path fill-rule="evenodd" clip-rule="evenodd" d="M162 192.331L103.408 216L98.7231 190.563L89.6515 141.309L31.8574 149.277C23.7079 150.398 16.1316 144.658 15.0101 136.515L13.141 123.006C12.0195 114.901 17.7142 107.356 25.7889 106.185C26.2873 99.2878 31.5708 93.4111 38.6735 92.4275L72.2559 87.7959C74.0877 64.9614 93.2029 47.0201 116.505 47.0201C121.527 47.0201 126.362 47.8542 130.86 49.3981L156.442 36L149.664 61.8849C156.642 69.7176 160.891 80.0391 160.891 91.3692C160.891 103.384 148.343 122.221 148.318 122.221V122.247C148.318 122.27 148.33 122.284 148.343 122.27C148.717 122.944 152.916 144.596 157.24 167.243C158.872 175.834 160.53 184.55 162 192.331Z" fill="#D7408F"/>
<path fill-rule="evenodd" clip-rule="evenodd" d="M148.515 122.5C148.505 122.51 148.495 122.53 148.485 122.54C148.485 122.52 148.485 122.49 148.495 122.46C148.505 122.47 148.505 122.49 148.515 122.5Z" fill="#FFC1D8"/>
<path fill-rule="evenodd" clip-rule="evenodd" d="M125 86.4994C125 101.134 116.942 113 107 113C97.0593 113 89 101.134 89 86.4994C89 71.8644 97.0593 60 107 60C116.942 60 125 71.8644 125 86.4994Z" fill="white"/>
<path fill-rule="evenodd" clip-rule="evenodd" d="M106.5 62.7043C97.7896 62.7043 90.7039 73.6035 90.7039 87.0006C90.7039 100.397 97.7896 111.296 106.5 111.296C115.21 111.296 122.296 100.397 122.296 87.0006C122.296 73.6035 115.21 62.7043 106.5 62.7043ZM106.5 115C95.7475 115 87 102.44 87 87.0006C87 71.5612 95.7475 59 106.5 59C117.253 59 126 71.5612 126 87.0006C126 102.44 117.253 115 106.5 115Z" fill="#633188"/>
<path fill-rule="evenodd" clip-rule="evenodd" d="M115 85C115 90.5232 110.523 95 105 95C99.4768 95 95 90.5232 95 85C95 79.4768 99.4768 75 105 75C110.523 75 115 79.4768 115 85Z" fill="#633188"/>
<path fill-rule="evenodd" clip-rule="evenodd" d="M183.021 60.2665C195.425 90.8289 190.729 124.021 173.417 149.237C170.315 153.769 166.791 158.041 162.899 161.994C154.123 170.906 143.427 178.193 131.084 183.163C118.743 188.132 105.957 190.3 93.4269 189.967C87.8708 189.818 82.3558 189.184 76.9629 188.071C46.9205 181.922 20.3854 161.305 7.98039 130.742C-11.6696 82.3264 11.5861 27.3049 59.9271 7.84128C108.258 -11.6174 163.371 11.8506 183.021 60.2665Z" stroke="#F5F5F5" stroke-width="1.465"/>
<path fill-rule="evenodd" clip-rule="evenodd" d="M187 181.526C178.689 183.077 170.306 185.049 161.887 187.442C142.403 192.975 122.716 200.756 103.212 210.791C98.1802 213.377 93.161 216.113 88.1605 219C83.7575 208.766 79.3694 198.648 75 188.647C75.4137 188.387 75.8274 188.129 76.2399 187.872C81.5585 187.816 87.0274 187.432 92.5547 186.744C94.5388 186.49 96.5366 186.212 98.5355 185.868C109.096 184.127 119.82 181.236 130.232 177.004C140.37 172.884 149.391 167.821 157.133 161.782C158.852 160.45 160.519 159.054 162.11 157.616C165.988 154.126 169.497 150.343 172.579 146.301C173 146.2 173.42 146.099 173.841 146C178.244 157.726 182.631 169.567 187 181.526Z" fill="#F5F5F5"/>
<path fill-rule="evenodd" clip-rule="evenodd" d="M187 181.526C178.689 183.077 170.306 185.049 161.887 187.442C142.403 192.975 122.716 200.756 103.212 210.791C98.1802 213.377 93.161 216.113 88.1605 219C83.7575 208.766 79.3694 198.648 75 188.647C75.4137 188.387 75.8274 188.129 76.2399 187.872C81.5585 187.816 87.0274 187.432 92.5547 186.744C94.5388 186.49 96.5366 186.212 98.5355 185.868C109.096 184.127 119.82 181.236 130.232 177.004C140.37 172.884 149.391 167.821 157.133 161.782C158.852 160.45 160.519 159.054 162.11 157.616C165.988 154.126 169.497 150.343 172.579 146.301C173 146.2 173.42 146.099 173.841 146C178.244 157.726 182.631 169.567 187 181.526Z" stroke="#F5F5F5" stroke-width="1.725"/>
<path fill-rule="evenodd" clip-rule="evenodd" d="M335.356 279.426C338.154 284.629 338.654 290.461 337.221 295.673C335.787 300.886 332.407 305.485 327.442 308.197L323.241 310.491C321.038 309.685 318.66 309.25 316.214 309.261L240.364 309.595C236.968 309.6 233.778 310.483 231 312L307.132 270.411C317.073 264.979 329.775 269.042 335.356 279.426Z" fill="#D7408F"/>
<path fill-rule="evenodd" clip-rule="evenodd" d="M335.356 279.426C338.154 284.629 338.654 290.461 337.221 295.673C335.787 300.886 332.407 305.485 327.442 308.197L323.241 310.491C321.038 309.685 318.66 309.25 316.214 309.261L240.364 309.595C236.968 309.6 233.778 310.483 231 312L307.132 270.411C317.073 264.979 329.775 269.042 335.356 279.426Z" stroke="#FFC1D8"/>
<path fill-rule="evenodd" clip-rule="evenodd" d="M336.988 330.251C337.258 338.49 332.93 345.69 326.388 349.276C323.605 350.801 320.428 351.668 317.046 351.683L245.051 351.978L245.024 351.98L241.395 352C230.031 352.06 220.404 342.491 220.013 330.76C219.732 322.529 224.061 315.328 230.603 311.742C233.375 310.223 236.556 309.339 239.945 309.334L315.601 309C318.041 308.99 320.415 309.424 322.612 310.233C330.683 313.159 336.677 321.029 336.988 330.251Z" fill="#D7408F"/>
<path fill-rule="evenodd" clip-rule="evenodd" d="M336.988 330.251C337.258 338.49 332.93 345.69 326.388 349.276C323.605 350.801 320.428 351.668 317.046 351.683L245.051 351.978L245.024 351.98L241.395 352C230.031 352.06 220.404 342.491 220.013 330.76C219.732 322.529 224.061 315.328 230.603 311.742C233.375 310.223 236.556 309.339 239.945 309.334L315.601 309C318.041 308.99 320.415 309.424 322.612 310.233C330.683 313.159 336.677 321.029 336.988 330.251Z" stroke="#FFC1D8"/>
<path fill-rule="evenodd" clip-rule="evenodd" d="M206.356 279.426C209.154 284.629 209.654 290.461 208.221 295.673C206.787 300.886 203.407 305.485 198.442 308.198L194.243 310.491C192.038 309.685 189.66 309.251 187.214 309.261L111.365 309.595C107.968 309.6 104.778 310.483 102 312L178.134 270.411C188.073 264.979 200.775 269.041 206.356 279.426Z" fill="#D7408F"/>
<path fill-rule="evenodd" clip-rule="evenodd" d="M206.356 279.426C209.154 284.629 209.654 290.461 208.221 295.673C206.787 300.886 203.407 305.485 198.442 308.198L194.243 310.491C192.038 309.685 189.66 309.251 187.214 309.261L111.365 309.595C107.968 309.6 104.778 310.483 102 312L178.134 270.411C188.073 264.979 200.775 269.041 206.356 279.426Z" stroke="#FFC1D8"/>
<path fill-rule="evenodd" clip-rule="evenodd" d="M207.988 330.251C208.258 338.49 203.93 345.69 197.387 349.276C194.605 350.801 191.428 351.668 188.046 351.685L116.05 351.98H116.023L112.394 352C101.03 352.06 91.4026 342.491 91.013 330.761C90.7313 322.529 95.0602 315.328 101.602 311.742C104.374 310.223 107.555 309.339 110.944 309.334L186.601 309C189.041 308.991 191.415 309.424 193.612 310.233C201.683 313.159 207.677 321.029 207.988 330.251Z" fill="#D7408F"/>
<path fill-rule="evenodd" clip-rule="evenodd" d="M207.988 330.251C208.258 338.49 203.93 345.69 197.387 349.276C194.605 350.801 191.428 351.668 188.046 351.685L116.05 351.98H116.023L112.394 352C101.03 352.06 91.4026 342.491 91.013 330.761C90.7313 322.529 95.0602 315.328 101.602 311.742C104.374 310.223 107.555 309.339 110.944 309.334L186.601 309C189.041 308.991 191.415 309.424 193.612 310.233C201.683 313.159 207.677 321.029 207.988 330.251Z" stroke="#FFC1D8"/>
</svg>
