<svg width="99" height="100" viewBox="0 0 99 100" fill="none" xmlns="http://www.w3.org/2000/svg">
<mask id="mask0_0_462" style="mask-type:alpha" maskUnits="userSpaceOnUse" x="0" y="1" width="99" height="99">
<path fill-rule="evenodd" clip-rule="evenodd" d="M0 1.00012H98.6497V99.64H0V1.00012Z" fill="white"/>
</mask>
<g mask="url(#mask0_0_462)">
<path fill-rule="evenodd" clip-rule="evenodd" d="M77.5397 50.0701C77.2397 59.6701 73.2207 68.8201 66.2207 75.8201L63.5107 73.1201C69.8197 66.8101 73.4497 58.5801 73.7207 49.9501C73.9797 41.3701 70.8907 33.4001 65.0107 27.5201L67.7207 24.8201C74.3507 31.4501 77.8407 40.4201 77.5397 50.0701ZM61.1197 36.8201L63.8197 34.1101C72.7607 43.0491 72.7607 57.5901 63.8197 66.5301L61.1197 63.8201C68.5607 56.3801 68.5607 44.2601 61.1197 36.8201ZM58.5297 68.2301L41.8197 58.5801H21.0907V40.6801H41.8107L58.5297 31.0201V68.2301ZM49.3197 1.00012C22.0797 1.00012 -0.000305176 23.0801 -0.000305176 50.3201C-0.000305176 77.5601 22.0797 99.6401 49.3197 99.6401C76.5607 99.6401 98.6497 77.5601 98.6497 50.3201C98.6497 23.0801 76.5607 1.00012 49.3197 1.00012Z" fill="#FFC1D8"/>
</g>
<path fill-rule="evenodd" clip-rule="evenodd" d="M41.8102 40.6804L58.5302 31.0204V68.2304L41.8202 58.5794H21.0902V40.6804H41.8102Z" fill="#FFC1D8"/>
<path fill-rule="evenodd" clip-rule="evenodd" d="M61.1198 63.8201C68.5598 56.3801 68.5598 44.2601 61.1198 36.8201L63.8198 34.1101C72.7608 43.0491 72.7608 57.5901 63.8198 66.5301L61.1198 63.8201Z" fill="#FFC1D8"/>
<path fill-rule="evenodd" clip-rule="evenodd" d="M77.5397 50.0701C77.2397 59.6701 73.2207 68.8201 66.2207 75.8201L63.5107 73.1201C69.8197 66.8101 73.4497 58.5801 73.7207 49.9501C73.9797 41.3701 70.8907 33.4001 65.0107 27.5201L67.7207 24.8201C74.3507 31.4501 77.8407 40.4201 77.5397 50.0701Z" fill="#FFC1D8"/>
<path fill-rule="evenodd" clip-rule="evenodd" d="M58.5299 31.0202V68.2302L41.8199 58.5802H21.0909V40.6802H41.8099L58.5299 31.0202Z" fill="white"/>
<path fill-rule="evenodd" clip-rule="evenodd" d="M63.8199 66.53L61.1199 63.82C68.5599 56.38 68.5599 44.26 61.1199 36.82L63.8199 34.11C72.7599 43.05 72.7599 57.59 63.8199 66.53Z" fill="white"/>
<path fill-rule="evenodd" clip-rule="evenodd" d="M77.5397 50.0701C77.2397 59.6701 73.2207 68.8201 66.2207 75.8201L63.5107 73.1201C69.8197 66.8101 73.4497 58.5801 73.7207 49.9501C73.9797 41.3701 70.8907 33.4001 65.0107 27.5201L67.7207 24.8201C74.3507 31.4501 77.8407 40.4201 77.5397 50.0701Z" fill="white"/>
</svg>
