<svg id="Layer_1" data-name="Layer 1" xmlns="http://www.w3.org/2000/svg" viewBox="0 0 841.89 595.28"><path d="M266.7,155l13.93.88q6.42.4,10,3.16a11.66,11.66,0,0,1,4.79,10.44,12.26,12.26,0,0,1-5,9.34q-3.72,2.91-10.72,2.47l-27-1.7q-7.94-.5-11.77-5a14.23,14.23,0,0,1-3.15-8.22q-.09-1.58.38-9l2.91-46.3a15.78,15.78,0,0,1,4.26-10.48q4.13-4.2,10.81-3.79,7.05.45,10.72,5.63,3,4.17,2.36,13.73Z" fill="#d84190"/><path d="M316.76,78l12.9.8q8,.49,11.69,3.87a11.8,11.8,0,0,1,4,9.9,12,12,0,0,1-5.2,9.46c-2.52,1.77-6.5,2.49-12,2.15l-22.12-1.37q-7.82-.48-10.64-1.8a12.2,12.2,0,0,1-7.05-7.75q-.93-3.32-.48-10.71l2.77-44.62a48,48,0,0,1,.84-7.49A12.46,12.46,0,0,1,295.24,24a14.1,14.1,0,0,1,7.94-3.43,69.34,69.34,0,0,1,9,.2l17,1.05q6.93.42,8.06.62a14.7,14.7,0,0,1,7.28,3A11.5,11.5,0,0,1,349,35.52q-.4,6.49-5.15,9.64-4.22,2.82-11.19,2.38l-14-.86-.35,5.59,11.12.69a12.92,12.92,0,0,1,8,3,8.74,8.74,0,0,1,2.94,7.48q-.6,9.81-13.11,9l-10.12-.63Z" fill="#d84190"/><path d="M382.41,101,371.35,85q-5.25-7.56-5-12.06a12.43,12.43,0,0,1,3.71-8.11,14.16,14.16,0,0,1,11.59-4.43q7,.42,11.55,6.85l8.51,12.1,9.19-9.89Q417.37,62.58,424,63a14.25,14.25,0,0,1,11.5,6.55,12.24,12.24,0,0,1,2.19,7.67c-.18,3.09-1.93,6.46-5.22,10.13l-14.18,15.8,14.91,21.48a14.11,14.11,0,0,1,2.55,9.15,13,13,0,0,1-3.33,8A13.42,13.42,0,0,1,421,146.38a14.25,14.25,0,0,1-11.25-6.47L399,124.66l-12.53,13.73q-5.14,5.61-11.89,5.2a14.17,14.17,0,0,1-9.81-4.54,12.61,12.61,0,0,1-3.62-9.79,14.34,14.34,0,0,1,3.83-9Z" fill="#d84190"/><path d="M462,62.42,448.83,48.16q-6.22-6.76-6.58-11.27a12.45,12.45,0,0,1,2.56-8.54,14.15,14.15,0,0,1,10.88-6q7-.56,12.37,5.2l10.09,10.81,7.75-11.06q5.42-7.72,12-8.24A14.21,14.21,0,0,1,510.22,24a12.23,12.23,0,0,1,3.23,7.3q.36,4.62-3.79,10.75L497.8,59.63l17.71,19.23a14,14,0,0,1,3.78,8.71A12.9,12.9,0,0,1,517.1,96a13.44,13.44,0,0,1-10.67,6.15,14.28,14.28,0,0,1-12-4.87L481.68,83.61,471.15,98.93q-4.32,6.27-11.06,6.79a14.25,14.25,0,0,1-10.35-3.15,12.65,12.65,0,0,1-4.93-9.2,14.38,14.38,0,0,1,2.56-9.44Z" fill="#d84190"/><path d="M575.14,122.4l-3.36,17.88q-1.26,6.75-4.14,9.7A13.64,13.64,0,0,1,554.58,154a13.5,13.5,0,0,1-10.47-8.34q-1.67-3.87-.37-10.74l3.35-17.82-14-30.21a14.15,14.15,0,0,1-1.26-8.7,12.3,12.3,0,0,1,4.62-7.47,13.8,13.8,0,0,1,11.71-2.82,14.48,14.48,0,0,1,11.05,8.57l7.27,15.65,13-12.21a14.9,14.9,0,0,1,22.07,2A12.55,12.55,0,0,1,604,92.08a13,13,0,0,1-4.11,7.19Z" fill="#d84190"/><path d="M373.43,215c-.69,15.66-9.4,28.52-19,28.1s-17.18-14-16.5-29.65,9.39-28.52,19-28.09S374.11,199.32,373.43,215Z" fill="#fff"/><circle cx="356.05" cy="205.31" r="9.63" fill="#64328a"/><path d="M472.88,187.67c-2.87,15.4-13.31,26.9-22.79,25.13s-15-16.27-12.16-31.68,13.33-26.91,22.79-25.13S475.78,172.27,472.88,187.67Z" fill="#fff"/><circle cx="455.41" cy="177.8" r="9.63" fill="#64328a"/><path d="M493.94,284.77c-.36-32.5-14.49-91.89-13.77-95.74,3.74-20-4.19-37.73-18.08-40.33s-27.7,11.05-31.44,31.06,4.19,37.72,18.08,40.32c7.84,1.47,15.67-2.24,21.65-9.36-2.3,15.15-1.25,43.13-1,66.4,0,.69,0,1.37,0,2-14.74-12-31.15-19-48.47-19-14.16,0-27.74,4.72-40.28,13-4.11-12.45-8.94-22.61-13.62-27,7.75-5.89,13.19-17.29,13.79-30.88.89-20.34-9.48-36.76-23.59-37.38s-25.86,14.84-26.75,35.18,9.46,36.76,23.58,37.37c.84,0,3,22.39,6.55,39.75-33.05,35-55.09,95-55.09,150.56,0,114.47,51.67,130.34,115.41,130.34S536.35,616,536.35,440.77C536.35,326.55,494,292.4,493.94,284.77ZM354.39,243.06c-9.62-.42-17.18-14-16.5-29.65s9.39-28.52,19-28.09,17.2,14,16.52,29.64S364,243.48,354.39,243.06Zm118.49-55.39c-2.87,15.4-13.31,26.9-22.79,25.13s-15-16.27-12.16-31.68,13.33-26.91,22.79-25.13S475.78,172.27,472.88,187.67Z" fill="#d84190"/><circle cx="501.56" cy="422.74" r="5.21" fill="#64328a"/><circle cx="485.48" cy="435.33" r="5.21" fill="#64328a"/><circle cx="504.81" cy="445.74" r="5.21" fill="#64328a"/><circle cx="357.34" cy="422.74" r="5.21" fill="#64328a"/><path d="M425.5,501.66c22.2,0,40.44-40.17,40.44-41.59H380.43C380.43,463.61,403.3,501.66,425.5,501.66Z" fill="#64328a"/><path d="M438.77,488l-11,.05a7.79,7.79,0,0,1-7.81-7.74l-.06-11,0-8.45a5.92,5.92,0,0,1,0-.84h26.43c0,.23,0,.47,0,.71l0,4.56.06,14.84A7.8,7.8,0,0,1,438.77,488Z" fill="#fff"/></svg>